<?xml version="1.0" encoding="UTF-8"?><svg id="Ebene_2" xmlns="http://www.w3.org/2000/svg" viewBox="0 0 386.29 454.36"><g id="Ebene_1-2"><path d="M96.08,353.83c-35.61-5.78-55.81-24.86-61.12-59.17-.42-2.74-3.87-5.89-6.68-7.23-17.58-8.36-23.41-18.92-17.84-37.97,3.1-10.61,2.59-18.44-4.03-28.12-10.59-15.49-6.67-32.09,1.7-48.13,2.49-4.77,3.68-11.55,2.46-16.69-6.3-26.44,.12-42.28,23.57-56.42,2.98-1.8,5.71-5.57,6.64-8.96,5.71-20.76,15.72-37.3,38.41-42.7,1.93-.46,4.41-1.33,5.35-2.82,15.86-24.99,41.32-29.52,67.74-32.23,3.23-.33,7-.45,9.5-2.17,21.58-14.87,44.71-13,67.8-5.7,10.91,3.45,21.03,5.87,32.32,2.16,4.95-1.63,10.66-1.62,15.97-1.34,9.28,.49,16.23,3.3,11.01,11.79,11.22,8.78,21.58,17.01,32.1,25.01,2.18,1.66,4.86,2.9,7.51,3.66,15.46,4.42,22.44,12.8,24.99,28.58,.86,5.33,4.57,10.17,5.74,15.5,2.23,10.12,4.24,20.39,5.09,30.7,.75,9.09-.23,18.31-.37,27.48-.1,6.54,1.81,13.83-.48,19.45-4.06,9.95-.2,16.98,2.98,26.03,8.01,22.78,15.5,46.17,19.11,69.94,3.81,25.11-6.74,32.08-29.89,25.16,1.09,5.36,4.54,12.04,2.84,16.92-1.68,4.84-8.55,7.88-10.93,9.86-1.88,8.21-3.75,14.67-4.68,21.25-.4,2.83,.66,6.15,1.86,8.9,7.93,18.25,2.98,32.53-16.34,37.76-17.31,4.68-35.63,5.59-54.45,8.3,9.45,14.28,19.76,29.5,29.6,45.01,2.51,3.95,3.55,8.84,5.26,13.29-4.54,1.14-9.08,3.25-13.63,3.27-73.26,.21-146.52,.16-219.78,.14-15.12,0-15.87-1.13-10.49-15.8,10.2-27.84,20.47-55.65,31.16-84.7Zm232.5-206.08c-.96,19.64-6.01,36.22-28.28,41.06-1.74,.38-3.5,3.82-4.02,6.11-4.11,18.05-13.72,29.7-34.39,29.06,1.81,16.2-3.64,28.23-16.53,37-2.37,1.62-3.4,5.34-4.83,8.2-9.84,19.75-33.31,21.93-46.41,4.12-3.41-4.63-5.67-10.11-9.08-14.74-6.35-8.62-13.11-7.87-17.79,1.61-9.7,19.68,4.99,42.16,27.71,42.73,4.09,.1,8.14,1.55,12.21,2.38-1.16,5.09-.92,11.18-3.72,15.09-10.07,14.07-24.67,16.2-40.95,14.16-4.81-.6-10.36,1.92-15.09,4.06-11.03,5-21.78,10.63-32.63,16.02-3.05,1.52-7.88,2.41-8.8,4.78-10.48,27.24-20.37,54.7-30.64,82.73h218.03c-11.18-17-21.5-32.32-31.33-47.96-2.41-3.84-3.2-8.7-4.73-13.09,4.29-.56,8.56-1.29,12.86-1.66,17.6-1.53,35.51-1.46,52.74-4.86,15.81-3.13,18.41-12.54,10.2-26.75-2.4-4.16-5.05-8.18-7.79-12.59,4.27-3.12,7.4-5.4,10.94-7.98-2.74-2.54-5.1-4.28-6.89-6.49-2.15-2.65-3.81-5.7-5.69-8.58,3.04-1.48,5.97-3.31,9.15-4.36,5.13-1.69,10.43-2.87,17.05-4.63-4.95-5.35-8.94-8.56-11.38-12.68-1.88-3.17-3.49-8.37-2.1-11.06,1.31-2.53,6.79-4.27,10.26-4.01,5.18,.39,10.27,2.66,15.28,4.45,8.76,3.14,14.42,.59,13.73-9.03-2.12-29.51-8.02-57.93-25.82-82.72-1.93-2.7-2.32-8.49-.74-11.37,6.31-11.53,6.14-22.73,1.27-34.41-7.12,1.76-13.83,3.42-21.77,5.38Zm-172.59,106.44c16.29-19.1,28.58-17.78,41.73,4.45,1.68,2.85,3.13,5.89,5.17,8.45,8.5,10.68,22.29,8.55,28.02-3.68,2.24-4.78,5.7-9.56,9.8-12.81,13.54-10.72,14.11-25.13,.74-35.65-13.53-10.64-18.03-29.14-9.86-43.25,1.65-2.85,5.84-4.23,8.86-6.29,.3,3.56,.76,7.12,.86,10.69,.22,7.55-1.88,16.01,.84,22.46,4.89,11.57,16.07,14.89,28.09,13.04,10.63-1.63,13.48-10.38,14.3-19.24,.99-10.68,3.31-17.62,16.7-16.34,3.86,.37,11.32-6.02,12.06-10.21,1.62-9.14,2.96-20.46-1.08-27.92-5.1-9.44-16.58-10.76-27.7-6.87-2.93,1.02-6.96-1.11-10.48-1.79,2.42-2.79,4.32-7.05,7.34-8.12,13.83-4.88,27.6-3.76,37.66,7.58,7.38,8.32,14.48,7.16,23.11,4.24,9.55-3.23,13.89-11.22,11.82-19.31-4.32-16.93-11.08-33.23-16.9-49.77-.25-.71-1.04-1.64-1.69-1.74-16.18-2.37-25.09-15.43-36.73-24.56-3.08-2.41-7.6-3.8-11.55-4.02-3.48-.19-8.6,.77-10.4,3.16-15.31,20.4-34.57,33.31-58.59,33.45,11.04,5.4,23.59,10.96,35.54,17.59,7.7,4.27,7.4,9.57,.17,15.33-23.88,19.02-48.49,26.5-75.54,5.22-5.49,7.07-10.24,13.18-16.5,21.24,18.39-5.26,33.34-1.64,47.05,6.79,2.74,1.69,5.73,7.68,4.72,10.01-8.41,19.39-39.1,34.32-59.47,29.39-5.81-1.4-11.31-4.04-17.61-6.36-3.36,7.44-6.4,14.15-8.13,17.97,15.54,1.36,30.37,2.22,45.02,4.35,2.47,.36,6.48,6.7,5.84,9.3-4.64,18.59-30.58,39.03-49.8,39.46-6.78,.15-13.6-1.66-20.75-2.63-2.09,7.92-3.94,14.93-6.02,22.79,23.68-11,33.52-12.09,53.36-6.39Zm-63.08-1.57c4.4-9.44,8.16-19.35-7.24-27.21-5.97-3.04-10.34-11.8-12.69-18.87-6.36-19.11-1.36-37.47,6.76-55.13,3.42-7.44,8.78-7.45,13.57-2.03,8.77,9.93,16.84,20.46,25.64,31.27,2.58-5.19,5.42-10.9,7.21-14.51-6.21-8.99-12.6-15.76-16.08-23.78-7.33-16.89,2.08-52.88,16.34-64.18,2.04-1.62,9.29-.62,10.6,1.42,7.54,11.82,14.02,24.32,20.92,36.7,3.42-4.31,7.64-9.63,11.72-14.76-16.46-18.89-19.1-33.29-8.89-54.24,4.28-8.79,10.21-17,16.51-24.54,10.2-12.21,14.77-11.68,20.37,3.14,4.43,11.7,6.49,24.29,8.93,33.86,6.87-12.92,14.76-27.77,22.75-42.8-18.06-5.81-37.46-8.77-57.34,.51-7.52,3.51-15.83,5.93-24.03,7.22-19.73,3.12-39.03,6.54-51.52,23.12,4.83,6.6,9.72,12.14,13.09,18.48,1.18,2.21-1.37,6.41-2.22,9.7-2.51-1.92-5.91-3.33-7.37-5.85-6.72-11.62-15.5-15.36-26.51-7.57-7.62,5.39-14.17,13.75-18.38,22.19-6.95,13.93-4.97,16.4,8.45,24.34,3.31,1.96,5.07,6.53,7.54,9.9-4.06-.04-8.17,.24-12.18-.25-1.89-.23-3.65-1.83-5.39-2.93-12.04-7.62-20.02-7.25-27.19,5.03-4.38,7.51-5.16,17.78-5.25,26.84-.04,4.04,4.9,10.6,8.78,11.66,6.58,1.81,13.93,.41,16.9-8.44,.9-2.68,4.54-4.43,6.92-6.61,.99,3.91,3.68,8.33,2.67,11.62-3.55,11.61-13.54,14.35-24.37,15.54-3.79,.42-8.5,1.07-10.95,3.48-11.27,11.07-13.85,31.25-3.68,43.2,8.57,10.07,9.92,18.05,4.68,30.35-6.46,15.15-1.48,26.33,11.36,28.44,10.46,1.72,11.86,6.75,12.59,15.66,1.86,22.93,16.45,41.12,35.25,44.51,.7-9.45,1.39-18.78,2.13-28.68-19.62-4.7-33.43-15.61-35.92-35.34-1.72-13.65-.28-27.83,.88-41.68,.77-9.17,7.04-11.1,13.94-5.58,10.48,8.37,20.28,17.6,30.74,26.78Zm101.74,61.14c-25.69-2.11-38.18-16.45-42.52-41.68-12.24,26.19-29.64,39.86-57.81,38-.68,10.89-1.31,20.93-1.96,31.27,20.79,4.06,37.97,2.22,51.35-14.83,2.39-3.04,8.96-4,13.54-3.88,12.44,.33,25.44,4.79,37.4-8.87Zm-17.49-222.34c19-15.18,22.87-40.38,9.41-61.23-22.28,18.98-26.43,45.95-9.41,61.23Zm-92.99,203.75c7.74-21-5.41-50.98-25.52-57.47-7.3,33.59,2.58,55.82,25.52,57.47Zm48.49-143.36c16.85-19.29,16.27-42.23-1.54-61.25-16.8,23.95-17.9,54.48,1.54,61.25Zm-31.28,69.71c11.9-24.16,7.6-44.39-12.52-61.02-13.66,25.8-8.7,51.49,12.52,61.02ZM275.76,18.26c-29.83-1.52-54.9,18.38-52.56,40.42,25.04-2.82,39.54-19.12,52.56-40.42ZM146.02,160.02c20.12,11.39,40.52,5.55,54.26-15.53-22.83-11.85-42.58-6.2-54.26,15.53Zm20,41.45c-23.48-10.03-48.58,5.83-49.83,24.92,19.23,8.66,40.55-4.02,49.83-24.92Zm-24.17,62.37c-23.96-4.66-41.69,8.59-44.52,33.27,22.54,3.61,39.88-9.35,44.52-33.27ZM244.07,95.41c-19.15-16.57-41.25-14.38-56.05,5.54,18.61,13.9,37.85,11.99,56.05-5.54Z"/><path d="M274.49,170.23c-.67,.89-3.06,4.07-5.46,7.24-1.69-3.06-4.52-6-4.87-9.2-1.51-13.93-8.23-20.34-22.46-21.16-3.1-.18-6.08-2.39-9.12-3.66,2.86-2.27,5.48-6.08,8.61-6.55,17.76-2.68,33.42,11.66,33.28,33.33Z"/><path d="M325.94,104.55c-21.51,.46-39.06-14.8-36.78-30.75,.59-4.12,5.44-7.63,8.33-11.43,.71,3.83,.67,8.01,2.29,11.4,2.61,5.47,5.41,11.47,9.83,15.27,3.71,3.19,10.02,3.17,14.84,5.31,2.53,1.13,4.35,3.85,6.49,5.85-2.16,1.87-4.32,3.73-5.01,4.33Z"/><path d="M190.56,217c4.49-6.07,7.05-9.53,9.61-12.99,1.51,3.66,2.71,7.5,4.59,10.96,2.99,5.51,6.7,10.63,9.58,16.19,1.28,2.46,1.27,5.59,1.85,8.42-2.63,.08-6.55,1.31-7.67,.04-6.14-6.91-11.59-14.43-17.95-22.62Z"/></g></svg>